# xmcd
# 
# Track frame offsets:
#     150
#     13859
#     22445
#     37026
#     47066
#     59179
#     70032
#     84339
#     97568
#     109175
#     120199
#     132019
#     141713
#     151890
#     161376
# 
# Disc length: 2300
# 
# Revision: 2
# Processed by: cddbd v1.5.2PL0 Copyright (c) Steve Scherf et al.
# Submitted via: fre:ac v1.0.27
# 
DISCID=c708fa0f
DTITLE=Jack Cooke - Sittin' On Top Of The World
DYEAR=2006
DGENRE=Country
TTITLE0=Gotta Travel On
TTITLE1=I'm Walking The Dog
TTITLE2=That's How The Cookie Crumbles
TTITLE3=Let's All Go Down To The River
TTITLE4=North To Alaska
TTITLE5=Dark Hollow
TTITLE6=Long Black Veil
TTITLE7=My Little Georgia Rose
TTITLE8=On And On
TTITLE9=Sittin' On Top Of The World
TTITLE10=Seven Year Blues
TTITLE11=There's A Higher Power
TTITLE12=Sugar Coated Love
TTITLE13=Let Me Rest At The End Of My Journey
TTITLE14=I've Always Been A Rambler
EXTD=YEAR: 2006
EXTT0=
EXTT1=
EXTT2=
EXTT3=
EXTT4=
EXTT5=
EXTT6=
EXTT7=
EXTT8=
EXTT9=
EXTT10=
EXTT11=
EXTT12=
EXTT13=
EXTT14=
PLAYORDER=
